<?xml version="1.0" standalone="no"?>
 <!DOCTYPE svg PUBLIC "-//W3C//DTD SVG 1.1//EN" 
 "http://www.w3.org/Graphics/SVG/1.1/DTD/svg11.dtd"> 
<svg xmlns="http://www.w3.org/2000/svg" version="1.1" 
    width="29.7002cm" height="21.0007cm" viewBox="0 0 116930 82680 ">
<title>SVG Picture created as electronics4kids_0.0.1-B.SilkS.svg date 2016/02/27 15:40:20 </title>
  <desc>Picture generated by PCBNEW </desc>
<g style="fill:#000000; fill-opacity:1;stroke:#000000; stroke-opacity:1;
stroke-linecap:round; stroke-linejoin:round; "
 transform="translate(0 0) scale(1 1)">
</g>
<g style="fill:#000000; fill-opacity:0.0; 
stroke:#000000; stroke-width:-0.000393701; stroke-opacity:1; 
stroke-linecap:round; stroke-linejoin:round;">
</g>
<g style="fill:#000000; fill-opacity:0.0; 
stroke:#000000; stroke-width:118.11; stroke-opacity:1; 
stroke-linecap:round; stroke-linejoin:round;">
<path d="M89918 39386
L89721 39386
" />
<path d="M89637 39696
L89918 39696
L89918 39105
L89637 39105
" />
<path d="M89131 39696
L89131 39386
L89159 39330
L89215 39302
L89327 39302
L89384 39330
" />
<path d="M89131 39668
L89187 39696
L89327 39696
L89384 39668
L89412 39611
L89412 39555
L89384 39499
L89327 39471
L89187 39471
L89131 39443
" />
<path d="M88877 39668
L88821 39696
L88709 39696
L88652 39668
L88624 39611
L88624 39583
L88652 39527
L88709 39499
L88793 39499
L88849 39471
L88877 39415
L88877 39386
L88849 39330
L88793 39302
L88709 39302
L88652 39330
" />
<path d="M88428 39302
L88287 39696
" />
<path d="M88146 39302
L88287 39696
L88343 39836
L88371 39865
L88428 39893
" />
<path d="M87640 39696
L87921 39696
L87921 39105
" />
<path d="M87190 39696
L87190 39386
L87218 39330
L87275 39302
L87387 39302
L87443 39330
" />
<path d="M87190 39668
L87246 39696
L87387 39696
L87443 39668
L87471 39611
L87471 39555
L87443 39499
L87387 39471
L87246 39471
L87190 39443
" />
<path d="M86909 39696
L86909 39105
" />
<path d="M86909 39330
L86853 39302
L86740 39302
L86684 39330
L86656 39358
L86628 39415
L86628 39583
L86656 39640
L86684 39668
L86740 39696
L86853 39696
L86909 39668
" />
<path d="M86122 39302
L86122 39696
" />
<path d="M86262 39077
L86403 39499
L86037 39499
" />
<path d="M85812 39696
L85812 39105
" />
<path d="M85475 39696
L85728 39358
" />
<path d="M85475 39105
L85812 39443
" />
<path d="M85222 39696
L85222 39302
" />
<path d="M85222 39105
L85250 39133
L85222 39161
L85194 39133
L85222 39105
L85222 39161
" />
<path d="M84687 39696
L84687 39105
" />
<path d="M84687 39668
L84744 39696
L84856 39696
L84912 39668
L84940 39640
L84969 39583
L84969 39415
L84940 39358
L84912 39330
L84856 39302
L84744 39302
L84687 39330
" />
<path d="M84434 39668
L84378 39696
L84266 39696
L84209 39668
L84181 39611
L84181 39583
L84209 39527
L84266 39499
L84350 39499
L84406 39471
L84434 39415
L84434 39386
L84406 39330
L84350 39302
L84266 39302
L84209 39330
" />
<path d="M83478 39696
L83478 39105
" />
<path d="M83478 39330
L83422 39302
L83309 39302
L83253 39330
L83225 39358
L83197 39415
L83197 39583
L83225 39640
L83253 39668
L83309 39696
L83422 39696
L83478 39668
" />
<path d="M82944 39696
L82944 39302
" />
<path d="M82944 39415
L82916 39358
L82888 39330
L82831 39302
L82775 39302
" />
<path d="M82353 39668
L82410 39696
L82522 39696
L82578 39668
L82606 39611
L82606 39386
L82578 39330
L82522 39302
L82410 39302
L82353 39330
L82325 39386
L82325 39443
L82606 39499
" />
<path d="M81819 39696
L81819 39386
L81847 39330
L81903 39302
L82016 39302
L82072 39330
" />
<path d="M81819 39668
L81875 39696
L82016 39696
L82072 39668
L82100 39611
L82100 39555
L82072 39499
L82016 39471
L81875 39471
L81819 39443
" />
<path d="M81538 39696
L81538 39105
" />
<path d="M81482 39471
L81313 39696
" />
<path d="M81313 39302
L81538 39527
" />
<path d="M80975 39696
L81032 39668
L81060 39640
L81088 39583
L81088 39415
L81060 39358
L81032 39330
L80975 39302
L80891 39302
L80835 39330
L80807 39358
L80778 39415
L80778 39583
L80807 39640
L80835 39668
L80891 39696
L80975 39696
" />
<path d="M80272 39302
L80272 39696
" />
<path d="M80525 39302
L80525 39611
L80497 39668
L80441 39696
L80357 39696
L80300 39668
L80272 39640
" />
<path d="M80075 39302
L79850 39302
" />
<path d="M79991 39105
L79991 39611
L79963 39668
L79907 39696
L79850 39696
" />
<path d="M79654 39696
L79654 39105
" />
<path d="M79654 39330
L79597 39302
L79485 39302
L79429 39330
L79401 39358
L79372 39415
L79372 39583
L79401 39640
L79429 39668
L79485 39696
L79597 39696
L79654 39668
" />
<path d="M79035 39696
L79091 39668
L79119 39640
L79147 39583
L79147 39415
L79119 39358
L79091 39330
L79035 39302
L78951 39302
L78894 39330
L78866 39358
L78838 39415
L78838 39583
L78866 39640
L78894 39668
L78951 39696
L79035 39696
" />
<path d="M78332 39696
L78332 39386
L78360 39330
L78416 39302
L78529 39302
L78585 39330
" />
<path d="M78332 39668
L78388 39696
L78529 39696
L78585 39668
L78613 39611
L78613 39555
L78585 39499
L78529 39471
L78388 39471
L78332 39443
" />
<path d="M78051 39696
L78051 39302
" />
<path d="M78051 39415
L78023 39358
L77994 39330
L77938 39302
L77882 39302
" />
<path d="M77432 39696
L77432 39105
" />
<path d="M77432 39668
L77488 39696
L77601 39696
L77657 39668
L77685 39640
L77713 39583
L77713 39415
L77685 39358
L77657 39330
L77601 39302
L77488 39302
L77432 39330
" />
<path d="M89805 40050
L89693 40050
L89637 40078
L89580 40134
L89552 40247
L89552 40444
L89580 40556
L89637 40613
L89693 40641
L89805 40641
L89862 40613
L89918 40556
L89946 40444
L89946 40247
L89918 40134
L89862 40078
L89805 40050
" />
<path d="M89299 40247
L89299 40641
" />
<path d="M89299 40303
L89271 40275
L89215 40247
L89131 40247
L89074 40275
L89046 40331
L89046 40641
" />
<path d="M88849 40247
L88624 40247
" />
<path d="M88765 40050
L88765 40556
L88737 40613
L88681 40641
L88624 40641
" />
<path d="M88484 40247
L88371 40641
L88259 40359
L88146 40641
L88034 40247
" />
<path d="M87584 40613
L87640 40641
L87753 40641
L87809 40613
L87837 40556
L87837 40331
L87809 40275
L87753 40247
L87640 40247
L87584 40275
L87556 40331
L87556 40388
L87837 40444
" />
<path d="M87303 40641
L87303 40247
" />
<path d="M87303 40359
L87275 40303
L87246 40275
L87190 40247
L87134 40247
" />
<path d="M86937 40247
L86937 40838
" />
<path d="M86937 40275
L86881 40247
L86768 40247
L86712 40275
L86684 40303
L86656 40359
L86656 40528
L86684 40584
L86712 40613
L86768 40641
L86881 40641
L86937 40613
" />
<path d="M86403 40584
L86375 40613
L86403 40641
L86431 40613
L86403 40584
L86403 40641
" />
<path d="M86403 40275
L86375 40303
L86403 40331
L86431 40303
L86403 40275
L86403 40331
" />
<path d="M85672 40641
L85672 40050
L85475 40472
L85278 40050
L85278 40641
" />
<path d="M84997 40641
L84997 40247
" />
<path d="M84997 40050
L85025 40078
L84997 40106
L84969 40078
L84997 40050
L84997 40106
" />
<path d="M84462 40613
L84519 40641
L84631 40641
L84687 40613
L84715 40584
L84744 40528
L84744 40359
L84715 40303
L84687 40275
L84631 40247
L84519 40247
L84462 40275
" />
<path d="M84209 40641
L84209 40050
" />
<path d="M83956 40641
L83956 40331
L83984 40275
L84041 40247
L84125 40247
L84181 40275
L84209 40303
" />
<path d="M83675 40641
L83675 40247
" />
<path d="M83675 40050
L83703 40078
L83675 40106
L83647 40078
L83675 40050
L83675 40106
" />
<path d="M83169 40613
L83225 40641
L83338 40641
L83394 40613
L83422 40556
L83422 40331
L83394 40275
L83338 40247
L83225 40247
L83169 40275
L83141 40331
L83141 40388
L83422 40444
" />
<path d="M82803 40641
L82859 40613
L82888 40556
L82888 40050
" />
<path d="M82128 40331
L81931 40331
" />
<path d="M81847 40641
L82128 40641
L82128 40050
L81847 40050
" />
<path d="M81594 40641
L81594 40247
" />
<path d="M81594 40359
L81566 40303
L81538 40275
L81482 40247
L81425 40247
" />
<path d="M80975 40641
L80975 40331
L81003 40275
L81060 40247
L81172 40247
L81228 40275
" />
<path d="M80975 40613
L81032 40641
L81172 40641
L81228 40613
L81257 40556
L81257 40500
L81228 40444
L81172 40416
L81032 40416
L80975 40388
" />
<path d="M80722 40613
L80666 40641
L80553 40641
L80497 40613
L80469 40556
L80469 40528
L80497 40472
L80553 40444
L80638 40444
L80694 40416
L80722 40359
L80722 40331
L80694 40275
L80638 40247
L80553 40247
L80497 40275
" />
<path d="M80216 40641
L80216 40247
" />
<path d="M80216 40303
L80188 40275
L80132 40247
L80047 40247
L79991 40275
L79963 40331
L79963 40641
" />
<path d="M79963 40331
L79935 40275
L79879 40247
L79794 40247
L79738 40275
L79710 40331
L79710 40641
" />
<path d="M79176 40247
L79176 40641
" />
<path d="M79429 40247
L79429 40556
L79401 40613
L79344 40641
L79260 40641
L79204 40613
L79176 40584
" />
<path d="M78922 40613
L78866 40641
L78754 40641
L78697 40613
L78669 40556
L78669 40528
L78697 40472
L78754 40444
L78838 40444
L78894 40416
L78922 40359
L78922 40331
L78894 40275
L78838 40247
L78754 40247
L78697 40275
" />
<path d="M90002 41940
L89805 42530
L89609 41940
" />
<path d="M89412 42530
L89412 42137
" />
<path d="M89412 42249
L89384 42193
L89356 42165
L89299 42137
L89243 42137
" />
<path d="M89102 42137
L88962 42530
" />
<path d="M88821 42137
L88962 42530
L89018 42671
L89046 42699
L89102 42727
" />
<path d="M88596 42530
L88596 41940
" />
<path d="M88343 42530
L88343 42221
L88371 42165
L88428 42137
L88512 42137
L88568 42165
L88596 42193
" />
<path d="M87837 42502
L87893 42530
L88006 42530
L88062 42502
L88090 42446
L88090 42221
L88062 42165
L88006 42137
L87893 42137
L87837 42165
L87809 42221
L87809 42277
L88090 42334
" />
<path d="M87556 42530
L87556 42137
" />
<path d="M87556 41940
L87584 41968
L87556 41996
L87528 41968
L87556 41940
L87556 41996
" />
<path d="M87021 42530
L87021 41940
" />
<path d="M87021 42502
L87078 42530
L87190 42530
L87246 42502
L87275 42474
L87303 42418
L87303 42249
L87275 42193
L87246 42165
L87190 42137
L87078 42137
L87021 42165
" />
<path d="M86290 42305
L85840 42305
" />
<path d="M86065 42530
L86065 42080
" />
<path d="M85194 41940
L84997 42530
L84800 41940
" />
<path d="M84519 42530
L84575 42502
L84603 42474
L84631 42418
L84631 42249
L84603 42193
L84575 42165
L84519 42137
L84434 42137
L84378 42165
L84350 42193
L84322 42249
L84322 42418
L84350 42474
L84378 42502
L84434 42530
L84519 42530
" />
<path d="M83984 42530
L84041 42502
L84069 42446
L84069 41940
" />
<path d="M83759 42530
L83759 41940
" />
<path d="M83703 42305
L83534 42530
" />
<path d="M83534 42137
L83759 42362
" />
<path d="M83309 42502
L83253 42530
L83141 42530
L83084 42502
L83056 42446
L83056 42418
L83084 42362
L83141 42334
L83225 42334
L83281 42305
L83309 42249
L83309 42221
L83281 42165
L83225 42137
L83141 42137
L83084 42165
" />
<path d="M82803 42530
L82803 42137
" />
<path d="M82803 42249
L82775 42193
L82747 42165
L82691 42137
L82634 42137
" />
<path d="M82213 42502
L82269 42530
L82381 42530
L82438 42502
L82466 42446
L82466 42221
L82438 42165
L82381 42137
L82269 42137
L82213 42165
L82185 42221
L82185 42277
L82466 42334
" />
<path d="M81931 42137
L81931 42727
" />
<path d="M81931 42165
L81875 42137
L81763 42137
L81706 42165
L81678 42193
L81650 42249
L81650 42418
L81678 42474
L81706 42502
L81763 42530
L81875 42530
L81931 42502
" />
<path d="M81144 42137
L81144 42530
" />
<path d="M81397 42137
L81397 42446
L81369 42502
L81313 42530
L81228 42530
L81172 42502
L81144 42474
" />
<path d="M80863 42530
L80863 41940
" />
<path d="M80863 42165
L80807 42137
L80694 42137
L80638 42165
L80610 42193
L80582 42249
L80582 42418
L80610 42474
L80638 42502
L80694 42530
L80807 42530
L80863 42502
" />
<path d="M80244 42530
L80300 42502
L80329 42446
L80329 41940
" />
<path d="M80019 42530
L80019 42137
" />
<path d="M80019 41940
L80047 41968
L80019 41996
L79991 41968
L80019 41940
L80019 41996
" />
<path d="M79513 42502
L79569 42530
L79682 42530
L79738 42502
L79766 42446
L79766 42221
L79738 42165
L79682 42137
L79569 42137
L79513 42165
L79485 42221
L79485 42277
L79766 42334
" />
<path d="M79232 42530
L79232 41940
" />
<path d="M79176 42305
L79007 42530
" />
<path d="M79007 42137
L79232 42362
" />
<path d="M78304 42221
L77854 42221
" />
<path d="M77854 42390
L78304 42390
" />
<path d="M77179 42137
L77038 42530
L76898 42137
" />
<path d="M76588 42530
L76645 42502
L76673 42474
L76701 42418
L76701 42249
L76673 42193
L76645 42165
L76588 42137
L76504 42137
L76448 42165
L76420 42193
L76392 42249
L76392 42418
L76420 42474
L76448 42502
L76504 42530
L76588 42530
" />
<path d="M76054 42530
L76110 42502
L76138 42474
L76167 42418
L76167 42249
L76138 42193
L76110 42165
L76054 42137
L75970 42137
L75913 42165
L75885 42193
L75857 42249
L75857 42418
L75885 42474
L75913 42502
L75970 42530
L76054 42530
" />
<path d="M75604 42530
L75604 42137
" />
<path d="M75604 42249
L75576 42193
L75548 42165
L75492 42137
L75435 42137
" />
<path d="M75267 42502
L75210 42530
L75098 42530
L75042 42502
L75014 42446
L75014 42418
L75042 42362
L75098 42334
L75182 42334
L75239 42305
L75267 42249
L75267 42221
L75239 42165
L75182 42137
L75098 42137
L75042 42165
" />
<path d="M74760 42137
L74760 42727
" />
<path d="M74760 42165
L74704 42137
L74592 42137
L74535 42165
L74507 42193
L74479 42249
L74479 42418
L74507 42474
L74535 42502
L74592 42530
L74704 42530
L74760 42502
" />
<path d="M74142 42530
L74198 42502
L74226 42474
L74254 42418
L74254 42249
L74226 42193
L74198 42165
L74142 42137
L74057 42137
L74001 42165
L73973 42193
L73945 42249
L73945 42418
L73973 42474
L74001 42502
L74057 42530
L74142 42530
" />
<path d="M73467 42502
L73523 42530
L73636 42530
L73692 42502
L73720 42446
L73720 42221
L73692 42165
L73636 42137
L73523 42137
L73467 42165
L73439 42221
L73439 42277
L73720 42334
" />
<path d="M72933 42530
L72933 41940
" />
<path d="M72933 42502
L72989 42530
L73101 42530
L73158 42502
L73186 42474
L73214 42418
L73214 42249
L73186 42193
L73158 42165
L73101 42137
L72989 42137
L72933 42165
" />
</g> 
</svg>
