M48
;DRILL file {KiCad 4.0.0-rc2-stable} date 3-3-2016 13:28:51
;FORMAT={-:-/ absolute / metric / decimal}
FMAT,2
METRIC,TZ
T1C0.400
T2C0.813
T3C0.914
T4C0.998
T5C1.000
T6C1.001
T7C1.016
T8C1.199
T9C1.847
T10C3.000
T11C3.000
T12C3.500
%
G90
G05
M71
T1
X40.25Y-117.5
X46.Y-107.5
X48.75Y-102.25
X53.25Y-89.75
X54.5Y-94.5
X56.5Y-95.25
X59.75Y-108.5
X60.Y-95.25
X60.25Y-96.5
X62.5Y-94.25
X65.Y-123.75
X65.75Y-85.25
X67.5Y-93.5
X67.75Y-98.5
X68.5Y-113.
X73.5Y-72.25
X75.5Y-117.75
X76.5Y-122.75
X77.25Y-117.75
X77.5Y-104.
X77.5Y-119.
X79.25Y-115.75
X83.5Y-96.25
X85.5Y-106.
X85.5Y-113.
X85.75Y-107.5
X85.75Y-123.75
X87.25Y-113.
X92.5Y-104.
X94.5Y-104.
X96.25Y-104.
X103.Y-63.25
X111.75Y-82.25
X118.75Y-82.25
X119.Y-83.5
X122.25Y-80.25
X123.Y-115.5
X129.75Y-110.25
X130.5Y-92.25
X132.25Y-90.5
X137.Y-74.
X139.25Y-40.5
X140.75Y-102.75
X140.75Y-118.75
X141.75Y-103.5
X142.5Y-104.5
X144.75Y-102.25
X154.Y-89.5
X159.25Y-110.25
X160.5Y-107.25
X162.Y-110.5
X162.25Y-105.5
X163.25Y-106.25
X164.Y-112.5
X164.75Y-111.5
X165.Y-80.25
X168.Y-108.25
X177.Y-88.
X179.Y-86.
X183.25Y-55.5
X210.5Y-27.
T2
X146.77Y-112.69
T3
X55.5Y-90.5
T4
X33.72Y-104.88
X36.26Y-104.88
X38.8Y-104.88
X41.34Y-104.88
X43.88Y-104.88
X46.42Y-104.88
X48.96Y-104.88
T5
X47.335Y-61.685
X49.875Y-61.685
X52.415Y-61.685
X54.955Y-61.685
X55.5Y-75.26
X57.495Y-61.685
X58.04Y-75.26
X58.04Y-90.5
X60.035Y-61.685
X60.58Y-75.26
X60.58Y-90.5
X62.575Y-61.685
X63.12Y-75.26
X63.12Y-90.5
X65.115Y-61.685
X65.66Y-75.26
X65.66Y-90.5
X67.655Y-61.685
X68.2Y-75.26
X68.2Y-90.5
X70.195Y-61.685
X72.735Y-61.685
X75.275Y-61.685
X77.815Y-61.685
X80.355Y-61.685
X82.895Y-61.685
X85.435Y-61.685
T6
X33.72Y-120.12
X36.26Y-120.12
X38.8Y-120.12
X41.34Y-120.12
X43.88Y-120.12
X46.42Y-120.12
X48.96Y-120.12
X51.5Y-104.88
X51.5Y-120.12
X54.04Y-104.88
X54.04Y-120.12
X56.58Y-104.88
X56.58Y-120.12
X59.12Y-104.88
X59.12Y-120.12
X61.66Y-104.88
X61.66Y-120.12
X64.2Y-104.88
X64.2Y-120.12
X66.74Y-104.88
X66.74Y-120.12
X69.28Y-104.88
X69.28Y-120.12
X144.75Y-104.75
X159.75Y-104.75
X168.5Y-104.25
X170.Y-85.499
X170.Y-92.001
X174.5Y-85.499
X174.5Y-92.001
X178.Y-52.75
X180.Y-61.75
X180.Y-76.75
X180.54Y-52.75
X183.5Y-104.25
X185.25Y-85.999
X185.25Y-92.501
X188.25Y-52.75
X189.5Y-61.75
X189.5Y-76.75
X189.75Y-85.999
X189.75Y-92.501
X190.79Y-52.75
X199.25Y-52.75
X200.5Y-85.999
X200.5Y-92.501
X201.75Y-61.5
X201.75Y-76.5
X201.79Y-52.75
X205.Y-85.999
X205.Y-92.501
X214.25Y-61.75
X214.25Y-76.75
X216.Y-85.999
X216.Y-92.501
X220.5Y-85.999
X220.5Y-92.501
X224.5Y-61.5
X224.5Y-76.5
T7
X108.976Y-79.914
X111.516Y-79.914
X114.056Y-79.914
X116.596Y-79.914
X144.23Y-112.69
X144.23Y-115.23
X144.23Y-117.77
X144.23Y-120.31
X146.77Y-115.23
X146.77Y-117.77
X146.77Y-120.31
X183.Y-113.75
X183.Y-116.29
X183.Y-118.83
X183.Y-121.37
X207.Y-24.25
X209.54Y-24.25
X211.75Y-113.5
X211.75Y-116.04
X211.75Y-118.58
X211.75Y-121.12
X212.08Y-24.25
X214.62Y-24.25
X217.16Y-24.25
T8
X177.59Y-39.75
X182.67Y-39.75
X187.75Y-39.75
T9
X94.Y-109.301
X94.Y-114.
X94.Y-118.699
X111.Y-109.301
X111.Y-114.
X111.Y-118.699
X127.5Y-109.301
X127.5Y-114.
X127.5Y-118.699
T10
X98.498Y-86.858
X128.549Y-86.894
T11
X32.5Y-20.25
X36.5Y-126.
X119.25Y-127.5
X205.25Y-125.75
X226.25Y-28.
T12
X40.096Y-23.458
X40.096Y-60.542
X154.904Y-23.458
X154.904Y-60.542
T0
M30
