G04 #@! TF.FileFunction,Legend,Bot*
%FSLAX46Y46*%
G04 Gerber Fmt 4.6, Leading zero omitted, Abs format (unit mm)*
G04 Created by KiCad (PCBNEW 4.0.0-rc2-stable) date 3-3-2016 13:28:57*
%MOMM*%
G01*
G04 APERTURE LIST*
%ADD10C,0.100000*%
%ADD11C,0.300000*%
G04 APERTURE END LIST*
D10*
D11*
X228392857Y-100042857D02*
X227892857Y-100042857D01*
X227678571Y-100828571D02*
X228392857Y-100828571D01*
X228392857Y-99328571D01*
X227678571Y-99328571D01*
X226392857Y-100828571D02*
X226392857Y-100042857D01*
X226464286Y-99900000D01*
X226607143Y-99828571D01*
X226892857Y-99828571D01*
X227035714Y-99900000D01*
X226392857Y-100757143D02*
X226535714Y-100828571D01*
X226892857Y-100828571D01*
X227035714Y-100757143D01*
X227107143Y-100614286D01*
X227107143Y-100471429D01*
X227035714Y-100328571D01*
X226892857Y-100257143D01*
X226535714Y-100257143D01*
X226392857Y-100185714D01*
X225750000Y-100757143D02*
X225607143Y-100828571D01*
X225321428Y-100828571D01*
X225178571Y-100757143D01*
X225107143Y-100614286D01*
X225107143Y-100542857D01*
X225178571Y-100400000D01*
X225321428Y-100328571D01*
X225535714Y-100328571D01*
X225678571Y-100257143D01*
X225750000Y-100114286D01*
X225750000Y-100042857D01*
X225678571Y-99900000D01*
X225535714Y-99828571D01*
X225321428Y-99828571D01*
X225178571Y-99900000D01*
X224607142Y-99828571D02*
X224249999Y-100828571D01*
X223892857Y-99828571D02*
X224249999Y-100828571D01*
X224392857Y-101185714D01*
X224464285Y-101257143D01*
X224607142Y-101328571D01*
X222607142Y-100828571D02*
X223321428Y-100828571D01*
X223321428Y-99328571D01*
X221464285Y-100828571D02*
X221464285Y-100042857D01*
X221535714Y-99900000D01*
X221678571Y-99828571D01*
X221964285Y-99828571D01*
X222107142Y-99900000D01*
X221464285Y-100757143D02*
X221607142Y-100828571D01*
X221964285Y-100828571D01*
X222107142Y-100757143D01*
X222178571Y-100614286D01*
X222178571Y-100471429D01*
X222107142Y-100328571D01*
X221964285Y-100257143D01*
X221607142Y-100257143D01*
X221464285Y-100185714D01*
X220749999Y-100828571D02*
X220749999Y-99328571D01*
X220749999Y-99900000D02*
X220607142Y-99828571D01*
X220321428Y-99828571D01*
X220178571Y-99900000D01*
X220107142Y-99971429D01*
X220035713Y-100114286D01*
X220035713Y-100542857D01*
X220107142Y-100685714D01*
X220178571Y-100757143D01*
X220321428Y-100828571D01*
X220607142Y-100828571D01*
X220749999Y-100757143D01*
X218749999Y-99828571D02*
X218749999Y-100828571D01*
X219107142Y-99257143D02*
X219464285Y-100328571D01*
X218535713Y-100328571D01*
X217964285Y-100828571D02*
X217964285Y-99328571D01*
X217107142Y-100828571D02*
X217749999Y-99971429D01*
X217107142Y-99328571D02*
X217964285Y-100185714D01*
X216464285Y-100828571D02*
X216464285Y-99828571D01*
X216464285Y-99328571D02*
X216535714Y-99400000D01*
X216464285Y-99471429D01*
X216392857Y-99400000D01*
X216464285Y-99328571D01*
X216464285Y-99471429D01*
X215107142Y-100828571D02*
X215107142Y-99328571D01*
X215107142Y-100757143D02*
X215249999Y-100828571D01*
X215535713Y-100828571D01*
X215678571Y-100757143D01*
X215749999Y-100685714D01*
X215821428Y-100542857D01*
X215821428Y-100114286D01*
X215749999Y-99971429D01*
X215678571Y-99900000D01*
X215535713Y-99828571D01*
X215249999Y-99828571D01*
X215107142Y-99900000D01*
X214464285Y-100757143D02*
X214321428Y-100828571D01*
X214035713Y-100828571D01*
X213892856Y-100757143D01*
X213821428Y-100614286D01*
X213821428Y-100542857D01*
X213892856Y-100400000D01*
X214035713Y-100328571D01*
X214249999Y-100328571D01*
X214392856Y-100257143D01*
X214464285Y-100114286D01*
X214464285Y-100042857D01*
X214392856Y-99900000D01*
X214249999Y-99828571D01*
X214035713Y-99828571D01*
X213892856Y-99900000D01*
X212035713Y-100828571D02*
X212035713Y-99328571D01*
X212035713Y-99900000D02*
X211892856Y-99828571D01*
X211607142Y-99828571D01*
X211464285Y-99900000D01*
X211392856Y-99971429D01*
X211321427Y-100114286D01*
X211321427Y-100542857D01*
X211392856Y-100685714D01*
X211464285Y-100757143D01*
X211607142Y-100828571D01*
X211892856Y-100828571D01*
X212035713Y-100757143D01*
X210678570Y-100828571D02*
X210678570Y-99828571D01*
X210678570Y-100114286D02*
X210607142Y-99971429D01*
X210535713Y-99900000D01*
X210392856Y-99828571D01*
X210249999Y-99828571D01*
X209178571Y-100757143D02*
X209321428Y-100828571D01*
X209607142Y-100828571D01*
X209749999Y-100757143D01*
X209821428Y-100614286D01*
X209821428Y-100042857D01*
X209749999Y-99900000D01*
X209607142Y-99828571D01*
X209321428Y-99828571D01*
X209178571Y-99900000D01*
X209107142Y-100042857D01*
X209107142Y-100185714D01*
X209821428Y-100328571D01*
X207821428Y-100828571D02*
X207821428Y-100042857D01*
X207892857Y-99900000D01*
X208035714Y-99828571D01*
X208321428Y-99828571D01*
X208464285Y-99900000D01*
X207821428Y-100757143D02*
X207964285Y-100828571D01*
X208321428Y-100828571D01*
X208464285Y-100757143D01*
X208535714Y-100614286D01*
X208535714Y-100471429D01*
X208464285Y-100328571D01*
X208321428Y-100257143D01*
X207964285Y-100257143D01*
X207821428Y-100185714D01*
X207107142Y-100828571D02*
X207107142Y-99328571D01*
X206964285Y-100257143D02*
X206535714Y-100828571D01*
X206535714Y-99828571D02*
X207107142Y-100400000D01*
X205678570Y-100828571D02*
X205821428Y-100757143D01*
X205892856Y-100685714D01*
X205964285Y-100542857D01*
X205964285Y-100114286D01*
X205892856Y-99971429D01*
X205821428Y-99900000D01*
X205678570Y-99828571D01*
X205464285Y-99828571D01*
X205321428Y-99900000D01*
X205249999Y-99971429D01*
X205178570Y-100114286D01*
X205178570Y-100542857D01*
X205249999Y-100685714D01*
X205321428Y-100757143D01*
X205464285Y-100828571D01*
X205678570Y-100828571D01*
X203892856Y-99828571D02*
X203892856Y-100828571D01*
X204535713Y-99828571D02*
X204535713Y-100614286D01*
X204464285Y-100757143D01*
X204321427Y-100828571D01*
X204107142Y-100828571D01*
X203964285Y-100757143D01*
X203892856Y-100685714D01*
X203392856Y-99828571D02*
X202821427Y-99828571D01*
X203178570Y-99328571D02*
X203178570Y-100614286D01*
X203107142Y-100757143D01*
X202964284Y-100828571D01*
X202821427Y-100828571D01*
X202321427Y-100828571D02*
X202321427Y-99328571D01*
X202321427Y-99900000D02*
X202178570Y-99828571D01*
X201892856Y-99828571D01*
X201749999Y-99900000D01*
X201678570Y-99971429D01*
X201607141Y-100114286D01*
X201607141Y-100542857D01*
X201678570Y-100685714D01*
X201749999Y-100757143D01*
X201892856Y-100828571D01*
X202178570Y-100828571D01*
X202321427Y-100757143D01*
X200749998Y-100828571D02*
X200892856Y-100757143D01*
X200964284Y-100685714D01*
X201035713Y-100542857D01*
X201035713Y-100114286D01*
X200964284Y-99971429D01*
X200892856Y-99900000D01*
X200749998Y-99828571D01*
X200535713Y-99828571D01*
X200392856Y-99900000D01*
X200321427Y-99971429D01*
X200249998Y-100114286D01*
X200249998Y-100542857D01*
X200321427Y-100685714D01*
X200392856Y-100757143D01*
X200535713Y-100828571D01*
X200749998Y-100828571D01*
X198964284Y-100828571D02*
X198964284Y-100042857D01*
X199035713Y-99900000D01*
X199178570Y-99828571D01*
X199464284Y-99828571D01*
X199607141Y-99900000D01*
X198964284Y-100757143D02*
X199107141Y-100828571D01*
X199464284Y-100828571D01*
X199607141Y-100757143D01*
X199678570Y-100614286D01*
X199678570Y-100471429D01*
X199607141Y-100328571D01*
X199464284Y-100257143D01*
X199107141Y-100257143D01*
X198964284Y-100185714D01*
X198249998Y-100828571D02*
X198249998Y-99828571D01*
X198249998Y-100114286D02*
X198178570Y-99971429D01*
X198107141Y-99900000D01*
X197964284Y-99828571D01*
X197821427Y-99828571D01*
X196678570Y-100828571D02*
X196678570Y-99328571D01*
X196678570Y-100757143D02*
X196821427Y-100828571D01*
X197107141Y-100828571D01*
X197249999Y-100757143D01*
X197321427Y-100685714D01*
X197392856Y-100542857D01*
X197392856Y-100114286D01*
X197321427Y-99971429D01*
X197249999Y-99900000D01*
X197107141Y-99828571D01*
X196821427Y-99828571D01*
X196678570Y-99900000D01*
X228107143Y-101728571D02*
X227821429Y-101728571D01*
X227678571Y-101800000D01*
X227535714Y-101942857D01*
X227464286Y-102228571D01*
X227464286Y-102728571D01*
X227535714Y-103014286D01*
X227678571Y-103157143D01*
X227821429Y-103228571D01*
X228107143Y-103228571D01*
X228250000Y-103157143D01*
X228392857Y-103014286D01*
X228464286Y-102728571D01*
X228464286Y-102228571D01*
X228392857Y-101942857D01*
X228250000Y-101800000D01*
X228107143Y-101728571D01*
X226821428Y-102228571D02*
X226821428Y-103228571D01*
X226821428Y-102371429D02*
X226750000Y-102300000D01*
X226607142Y-102228571D01*
X226392857Y-102228571D01*
X226250000Y-102300000D01*
X226178571Y-102442857D01*
X226178571Y-103228571D01*
X225678571Y-102228571D02*
X225107142Y-102228571D01*
X225464285Y-101728571D02*
X225464285Y-103014286D01*
X225392857Y-103157143D01*
X225249999Y-103228571D01*
X225107142Y-103228571D01*
X224749999Y-102228571D02*
X224464285Y-103228571D01*
X224178571Y-102514286D01*
X223892856Y-103228571D01*
X223607142Y-102228571D01*
X222464285Y-103157143D02*
X222607142Y-103228571D01*
X222892856Y-103228571D01*
X223035713Y-103157143D01*
X223107142Y-103014286D01*
X223107142Y-102442857D01*
X223035713Y-102300000D01*
X222892856Y-102228571D01*
X222607142Y-102228571D01*
X222464285Y-102300000D01*
X222392856Y-102442857D01*
X222392856Y-102585714D01*
X223107142Y-102728571D01*
X221749999Y-103228571D02*
X221749999Y-102228571D01*
X221749999Y-102514286D02*
X221678571Y-102371429D01*
X221607142Y-102300000D01*
X221464285Y-102228571D01*
X221321428Y-102228571D01*
X220821428Y-102228571D02*
X220821428Y-103728571D01*
X220821428Y-102300000D02*
X220678571Y-102228571D01*
X220392857Y-102228571D01*
X220250000Y-102300000D01*
X220178571Y-102371429D01*
X220107142Y-102514286D01*
X220107142Y-102942857D01*
X220178571Y-103085714D01*
X220250000Y-103157143D01*
X220392857Y-103228571D01*
X220678571Y-103228571D01*
X220821428Y-103157143D01*
X219464285Y-103085714D02*
X219392857Y-103157143D01*
X219464285Y-103228571D01*
X219535714Y-103157143D01*
X219464285Y-103085714D01*
X219464285Y-103228571D01*
X219464285Y-102300000D02*
X219392857Y-102371429D01*
X219464285Y-102442857D01*
X219535714Y-102371429D01*
X219464285Y-102300000D01*
X219464285Y-102442857D01*
X217607142Y-103228571D02*
X217607142Y-101728571D01*
X217107142Y-102800000D01*
X216607142Y-101728571D01*
X216607142Y-103228571D01*
X215892856Y-103228571D02*
X215892856Y-102228571D01*
X215892856Y-101728571D02*
X215964285Y-101800000D01*
X215892856Y-101871429D01*
X215821428Y-101800000D01*
X215892856Y-101728571D01*
X215892856Y-101871429D01*
X214535713Y-103157143D02*
X214678570Y-103228571D01*
X214964284Y-103228571D01*
X215107142Y-103157143D01*
X215178570Y-103085714D01*
X215249999Y-102942857D01*
X215249999Y-102514286D01*
X215178570Y-102371429D01*
X215107142Y-102300000D01*
X214964284Y-102228571D01*
X214678570Y-102228571D01*
X214535713Y-102300000D01*
X213892856Y-103228571D02*
X213892856Y-101728571D01*
X213249999Y-103228571D02*
X213249999Y-102442857D01*
X213321428Y-102300000D01*
X213464285Y-102228571D01*
X213678570Y-102228571D01*
X213821428Y-102300000D01*
X213892856Y-102371429D01*
X212535713Y-103228571D02*
X212535713Y-102228571D01*
X212535713Y-101728571D02*
X212607142Y-101800000D01*
X212535713Y-101871429D01*
X212464285Y-101800000D01*
X212535713Y-101728571D01*
X212535713Y-101871429D01*
X211249999Y-103157143D02*
X211392856Y-103228571D01*
X211678570Y-103228571D01*
X211821427Y-103157143D01*
X211892856Y-103014286D01*
X211892856Y-102442857D01*
X211821427Y-102300000D01*
X211678570Y-102228571D01*
X211392856Y-102228571D01*
X211249999Y-102300000D01*
X211178570Y-102442857D01*
X211178570Y-102585714D01*
X211892856Y-102728571D01*
X210321427Y-103228571D02*
X210464285Y-103157143D01*
X210535713Y-103014286D01*
X210535713Y-101728571D01*
X208607142Y-102442857D02*
X208107142Y-102442857D01*
X207892856Y-103228571D02*
X208607142Y-103228571D01*
X208607142Y-101728571D01*
X207892856Y-101728571D01*
X207249999Y-103228571D02*
X207249999Y-102228571D01*
X207249999Y-102514286D02*
X207178571Y-102371429D01*
X207107142Y-102300000D01*
X206964285Y-102228571D01*
X206821428Y-102228571D01*
X205678571Y-103228571D02*
X205678571Y-102442857D01*
X205750000Y-102300000D01*
X205892857Y-102228571D01*
X206178571Y-102228571D01*
X206321428Y-102300000D01*
X205678571Y-103157143D02*
X205821428Y-103228571D01*
X206178571Y-103228571D01*
X206321428Y-103157143D01*
X206392857Y-103014286D01*
X206392857Y-102871429D01*
X206321428Y-102728571D01*
X206178571Y-102657143D01*
X205821428Y-102657143D01*
X205678571Y-102585714D01*
X205035714Y-103157143D02*
X204892857Y-103228571D01*
X204607142Y-103228571D01*
X204464285Y-103157143D01*
X204392857Y-103014286D01*
X204392857Y-102942857D01*
X204464285Y-102800000D01*
X204607142Y-102728571D01*
X204821428Y-102728571D01*
X204964285Y-102657143D01*
X205035714Y-102514286D01*
X205035714Y-102442857D01*
X204964285Y-102300000D01*
X204821428Y-102228571D01*
X204607142Y-102228571D01*
X204464285Y-102300000D01*
X203749999Y-103228571D02*
X203749999Y-102228571D01*
X203749999Y-102371429D02*
X203678571Y-102300000D01*
X203535713Y-102228571D01*
X203321428Y-102228571D01*
X203178571Y-102300000D01*
X203107142Y-102442857D01*
X203107142Y-103228571D01*
X203107142Y-102442857D02*
X203035713Y-102300000D01*
X202892856Y-102228571D01*
X202678571Y-102228571D01*
X202535713Y-102300000D01*
X202464285Y-102442857D01*
X202464285Y-103228571D01*
X201107142Y-102228571D02*
X201107142Y-103228571D01*
X201749999Y-102228571D02*
X201749999Y-103014286D01*
X201678571Y-103157143D01*
X201535713Y-103228571D01*
X201321428Y-103228571D01*
X201178571Y-103157143D01*
X201107142Y-103085714D01*
X200464285Y-103157143D02*
X200321428Y-103228571D01*
X200035713Y-103228571D01*
X199892856Y-103157143D01*
X199821428Y-103014286D01*
X199821428Y-102942857D01*
X199892856Y-102800000D01*
X200035713Y-102728571D01*
X200249999Y-102728571D01*
X200392856Y-102657143D01*
X200464285Y-102514286D01*
X200464285Y-102442857D01*
X200392856Y-102300000D01*
X200249999Y-102228571D01*
X200035713Y-102228571D01*
X199892856Y-102300000D01*
X228607143Y-106528571D02*
X228107143Y-108028571D01*
X227607143Y-106528571D01*
X227107143Y-108028571D02*
X227107143Y-107028571D01*
X227107143Y-107314286D02*
X227035715Y-107171429D01*
X226964286Y-107100000D01*
X226821429Y-107028571D01*
X226678572Y-107028571D01*
X226321429Y-107028571D02*
X225964286Y-108028571D01*
X225607144Y-107028571D02*
X225964286Y-108028571D01*
X226107144Y-108385714D01*
X226178572Y-108457143D01*
X226321429Y-108528571D01*
X225035715Y-108028571D02*
X225035715Y-106528571D01*
X224392858Y-108028571D02*
X224392858Y-107242857D01*
X224464287Y-107100000D01*
X224607144Y-107028571D01*
X224821429Y-107028571D01*
X224964287Y-107100000D01*
X225035715Y-107171429D01*
X223107144Y-107957143D02*
X223250001Y-108028571D01*
X223535715Y-108028571D01*
X223678572Y-107957143D01*
X223750001Y-107814286D01*
X223750001Y-107242857D01*
X223678572Y-107100000D01*
X223535715Y-107028571D01*
X223250001Y-107028571D01*
X223107144Y-107100000D01*
X223035715Y-107242857D01*
X223035715Y-107385714D01*
X223750001Y-107528571D01*
X222392858Y-108028571D02*
X222392858Y-107028571D01*
X222392858Y-106528571D02*
X222464287Y-106600000D01*
X222392858Y-106671429D01*
X222321430Y-106600000D01*
X222392858Y-106528571D01*
X222392858Y-106671429D01*
X221035715Y-108028571D02*
X221035715Y-106528571D01*
X221035715Y-107957143D02*
X221178572Y-108028571D01*
X221464286Y-108028571D01*
X221607144Y-107957143D01*
X221678572Y-107885714D01*
X221750001Y-107742857D01*
X221750001Y-107314286D01*
X221678572Y-107171429D01*
X221607144Y-107100000D01*
X221464286Y-107028571D01*
X221178572Y-107028571D01*
X221035715Y-107100000D01*
X219178572Y-107457143D02*
X218035715Y-107457143D01*
X218607144Y-108028571D02*
X218607144Y-106885714D01*
X216392858Y-106528571D02*
X215892858Y-108028571D01*
X215392858Y-106528571D01*
X214678572Y-108028571D02*
X214821430Y-107957143D01*
X214892858Y-107885714D01*
X214964287Y-107742857D01*
X214964287Y-107314286D01*
X214892858Y-107171429D01*
X214821430Y-107100000D01*
X214678572Y-107028571D01*
X214464287Y-107028571D01*
X214321430Y-107100000D01*
X214250001Y-107171429D01*
X214178572Y-107314286D01*
X214178572Y-107742857D01*
X214250001Y-107885714D01*
X214321430Y-107957143D01*
X214464287Y-108028571D01*
X214678572Y-108028571D01*
X213321429Y-108028571D02*
X213464287Y-107957143D01*
X213535715Y-107814286D01*
X213535715Y-106528571D01*
X212750001Y-108028571D02*
X212750001Y-106528571D01*
X212607144Y-107457143D02*
X212178573Y-108028571D01*
X212178573Y-107028571D02*
X212750001Y-107600000D01*
X211607144Y-107957143D02*
X211464287Y-108028571D01*
X211178572Y-108028571D01*
X211035715Y-107957143D01*
X210964287Y-107814286D01*
X210964287Y-107742857D01*
X211035715Y-107600000D01*
X211178572Y-107528571D01*
X211392858Y-107528571D01*
X211535715Y-107457143D01*
X211607144Y-107314286D01*
X211607144Y-107242857D01*
X211535715Y-107100000D01*
X211392858Y-107028571D01*
X211178572Y-107028571D01*
X211035715Y-107100000D01*
X210321429Y-108028571D02*
X210321429Y-107028571D01*
X210321429Y-107314286D02*
X210250001Y-107171429D01*
X210178572Y-107100000D01*
X210035715Y-107028571D01*
X209892858Y-107028571D01*
X208821430Y-107957143D02*
X208964287Y-108028571D01*
X209250001Y-108028571D01*
X209392858Y-107957143D01*
X209464287Y-107814286D01*
X209464287Y-107242857D01*
X209392858Y-107100000D01*
X209250001Y-107028571D01*
X208964287Y-107028571D01*
X208821430Y-107100000D01*
X208750001Y-107242857D01*
X208750001Y-107385714D01*
X209464287Y-107528571D01*
X208107144Y-107028571D02*
X208107144Y-108528571D01*
X208107144Y-107100000D02*
X207964287Y-107028571D01*
X207678573Y-107028571D01*
X207535716Y-107100000D01*
X207464287Y-107171429D01*
X207392858Y-107314286D01*
X207392858Y-107742857D01*
X207464287Y-107885714D01*
X207535716Y-107957143D01*
X207678573Y-108028571D01*
X207964287Y-108028571D01*
X208107144Y-107957143D01*
X206107144Y-107028571D02*
X206107144Y-108028571D01*
X206750001Y-107028571D02*
X206750001Y-107814286D01*
X206678573Y-107957143D01*
X206535715Y-108028571D01*
X206321430Y-108028571D01*
X206178573Y-107957143D01*
X206107144Y-107885714D01*
X205392858Y-108028571D02*
X205392858Y-106528571D01*
X205392858Y-107100000D02*
X205250001Y-107028571D01*
X204964287Y-107028571D01*
X204821430Y-107100000D01*
X204750001Y-107171429D01*
X204678572Y-107314286D01*
X204678572Y-107742857D01*
X204750001Y-107885714D01*
X204821430Y-107957143D01*
X204964287Y-108028571D01*
X205250001Y-108028571D01*
X205392858Y-107957143D01*
X203821429Y-108028571D02*
X203964287Y-107957143D01*
X204035715Y-107814286D01*
X204035715Y-106528571D01*
X203250001Y-108028571D02*
X203250001Y-107028571D01*
X203250001Y-106528571D02*
X203321430Y-106600000D01*
X203250001Y-106671429D01*
X203178573Y-106600000D01*
X203250001Y-106528571D01*
X203250001Y-106671429D01*
X201964287Y-107957143D02*
X202107144Y-108028571D01*
X202392858Y-108028571D01*
X202535715Y-107957143D01*
X202607144Y-107814286D01*
X202607144Y-107242857D01*
X202535715Y-107100000D01*
X202392858Y-107028571D01*
X202107144Y-107028571D01*
X201964287Y-107100000D01*
X201892858Y-107242857D01*
X201892858Y-107385714D01*
X202607144Y-107528571D01*
X201250001Y-108028571D02*
X201250001Y-106528571D01*
X201107144Y-107457143D02*
X200678573Y-108028571D01*
X200678573Y-107028571D02*
X201250001Y-107600000D01*
X198892858Y-107242857D02*
X197750001Y-107242857D01*
X197750001Y-107671429D02*
X198892858Y-107671429D01*
X196035715Y-107028571D02*
X195678572Y-108028571D01*
X195321430Y-107028571D01*
X194535715Y-108028571D02*
X194678573Y-107957143D01*
X194750001Y-107885714D01*
X194821430Y-107742857D01*
X194821430Y-107314286D01*
X194750001Y-107171429D01*
X194678573Y-107100000D01*
X194535715Y-107028571D01*
X194321430Y-107028571D01*
X194178573Y-107100000D01*
X194107144Y-107171429D01*
X194035715Y-107314286D01*
X194035715Y-107742857D01*
X194107144Y-107885714D01*
X194178573Y-107957143D01*
X194321430Y-108028571D01*
X194535715Y-108028571D01*
X193178572Y-108028571D02*
X193321430Y-107957143D01*
X193392858Y-107885714D01*
X193464287Y-107742857D01*
X193464287Y-107314286D01*
X193392858Y-107171429D01*
X193321430Y-107100000D01*
X193178572Y-107028571D01*
X192964287Y-107028571D01*
X192821430Y-107100000D01*
X192750001Y-107171429D01*
X192678572Y-107314286D01*
X192678572Y-107742857D01*
X192750001Y-107885714D01*
X192821430Y-107957143D01*
X192964287Y-108028571D01*
X193178572Y-108028571D01*
X192035715Y-108028571D02*
X192035715Y-107028571D01*
X192035715Y-107314286D02*
X191964287Y-107171429D01*
X191892858Y-107100000D01*
X191750001Y-107028571D01*
X191607144Y-107028571D01*
X191178573Y-107957143D02*
X191035716Y-108028571D01*
X190750001Y-108028571D01*
X190607144Y-107957143D01*
X190535716Y-107814286D01*
X190535716Y-107742857D01*
X190607144Y-107600000D01*
X190750001Y-107528571D01*
X190964287Y-107528571D01*
X191107144Y-107457143D01*
X191178573Y-107314286D01*
X191178573Y-107242857D01*
X191107144Y-107100000D01*
X190964287Y-107028571D01*
X190750001Y-107028571D01*
X190607144Y-107100000D01*
X189892858Y-107028571D02*
X189892858Y-108528571D01*
X189892858Y-107100000D02*
X189750001Y-107028571D01*
X189464287Y-107028571D01*
X189321430Y-107100000D01*
X189250001Y-107171429D01*
X189178572Y-107314286D01*
X189178572Y-107742857D01*
X189250001Y-107885714D01*
X189321430Y-107957143D01*
X189464287Y-108028571D01*
X189750001Y-108028571D01*
X189892858Y-107957143D01*
X188321429Y-108028571D02*
X188464287Y-107957143D01*
X188535715Y-107885714D01*
X188607144Y-107742857D01*
X188607144Y-107314286D01*
X188535715Y-107171429D01*
X188464287Y-107100000D01*
X188321429Y-107028571D01*
X188107144Y-107028571D01*
X187964287Y-107100000D01*
X187892858Y-107171429D01*
X187821429Y-107314286D01*
X187821429Y-107742857D01*
X187892858Y-107885714D01*
X187964287Y-107957143D01*
X188107144Y-108028571D01*
X188321429Y-108028571D01*
X186607144Y-107957143D02*
X186750001Y-108028571D01*
X187035715Y-108028571D01*
X187178572Y-107957143D01*
X187250001Y-107814286D01*
X187250001Y-107242857D01*
X187178572Y-107100000D01*
X187035715Y-107028571D01*
X186750001Y-107028571D01*
X186607144Y-107100000D01*
X186535715Y-107242857D01*
X186535715Y-107385714D01*
X187250001Y-107528571D01*
X185250001Y-108028571D02*
X185250001Y-106528571D01*
X185250001Y-107957143D02*
X185392858Y-108028571D01*
X185678572Y-108028571D01*
X185821430Y-107957143D01*
X185892858Y-107885714D01*
X185964287Y-107742857D01*
X185964287Y-107314286D01*
X185892858Y-107171429D01*
X185821430Y-107100000D01*
X185678572Y-107028571D01*
X185392858Y-107028571D01*
X185250001Y-107100000D01*
M02*
