G04 #@! TF.FileFunction,Copper,L2,Bot,Signal*
%FSLAX46Y46*%
G04 Gerber Fmt 4.6, Leading zero omitted, Abs format (unit mm)*
G04 Created by KiCad (PCBNEW 4.0.0-rc2-stable) date 3-3-2016 13:28:57*
%MOMM*%
G01*
G04 APERTURE LIST*
%ADD10C,0.100000*%
%ADD11R,1.900000X2.000000*%
%ADD12C,1.900000*%
%ADD13O,1.524000X2.199640*%
%ADD14O,1.524000X2.197100*%
%ADD15O,1.500000X3.000000*%
%ADD16C,6.500000*%
%ADD17R,1.727200X2.032000*%
%ADD18O,1.727200X2.032000*%
%ADD19R,2.032000X2.032000*%
%ADD20C,2.000000*%
%ADD21R,2.032000X1.727200*%
%ADD22O,2.032000X1.727200*%
%ADD23C,2.499360*%
%ADD24C,1.998980*%
%ADD25C,2.997200*%
%ADD26R,1.524000X1.524000*%
%ADD27C,1.524000*%
%ADD28C,4.500880*%
%ADD29R,1.397000X1.397000*%
%ADD30C,0.600000*%
%ADD31C,0.450000*%
G04 APERTURE END LIST*
D10*
D11*
X199250000Y-52750000D03*
D12*
X201790000Y-52750000D03*
D11*
X178000000Y-52750000D03*
D12*
X180540000Y-52750000D03*
D13*
X33720000Y-120120000D03*
X36260000Y-120120000D03*
X38800000Y-120120000D03*
X41340000Y-120120000D03*
X43880000Y-120120000D03*
X46420000Y-120120000D03*
X48960000Y-120120000D03*
X51500000Y-120120000D03*
X54040000Y-120120000D03*
X56580000Y-120120000D03*
X59120000Y-120120000D03*
X61660000Y-120120000D03*
X64200000Y-120120000D03*
X66740000Y-120120000D03*
X69280000Y-120120000D03*
X69280000Y-104880000D03*
X66740000Y-104880000D03*
X64200000Y-104880000D03*
X61660000Y-104880000D03*
D14*
X59120000Y-104880000D03*
X56580000Y-104880000D03*
X54040000Y-104880000D03*
X51500000Y-104880000D03*
X48960000Y-104880000D03*
X46420000Y-104880000D03*
X43880000Y-104880000D03*
X41340000Y-104880000D03*
X38800000Y-104880000D03*
X36260000Y-104880000D03*
X33720000Y-104880000D03*
D15*
X47335000Y-61685000D03*
X49875000Y-61685000D03*
X52415000Y-61685000D03*
X54955000Y-61685000D03*
X57495000Y-61685000D03*
X60035000Y-61685000D03*
X62575000Y-61685000D03*
X65115000Y-61685000D03*
X67655000Y-61685000D03*
X70195000Y-61685000D03*
X72735000Y-61685000D03*
X75275000Y-61685000D03*
X77815000Y-61685000D03*
X80355000Y-61685000D03*
X82895000Y-61685000D03*
X85435000Y-61685000D03*
D16*
X154904000Y-60542000D03*
X154904000Y-23458000D03*
X40096000Y-60542000D03*
X40096000Y-23458000D03*
D17*
X207000000Y-24250000D03*
D18*
X209540000Y-24250000D03*
X212080000Y-24250000D03*
X214620000Y-24250000D03*
X217160000Y-24250000D03*
D19*
X55500000Y-90500000D03*
D20*
X58040000Y-90500000D03*
X60580000Y-90500000D03*
X63120000Y-90500000D03*
X65660000Y-90500000D03*
X68200000Y-90500000D03*
X63120000Y-75260000D03*
X65660000Y-75260000D03*
X55500000Y-75260000D03*
X58040000Y-75260000D03*
X68200000Y-75260000D03*
X60580000Y-75260000D03*
D21*
X183000000Y-113750000D03*
D22*
X183000000Y-116290000D03*
X183000000Y-118830000D03*
X183000000Y-121370000D03*
D21*
X211750000Y-113500000D03*
D22*
X211750000Y-116040000D03*
X211750000Y-118580000D03*
X211750000Y-121120000D03*
D23*
X182670000Y-39750000D03*
X177590000Y-39750000D03*
X187750000Y-39750000D03*
D24*
X185249560Y-85998800D03*
X189750440Y-92501200D03*
X189750440Y-85998800D03*
X185249560Y-92501200D03*
X200499560Y-85998800D03*
X205000440Y-92501200D03*
X205000440Y-85998800D03*
X200499560Y-92501200D03*
X215999560Y-85998800D03*
X220500440Y-92501200D03*
X220500440Y-85998800D03*
X215999560Y-92501200D03*
D25*
X127500000Y-109301000D03*
X127500000Y-114000000D03*
X127500000Y-118699000D03*
X111000000Y-109301000D03*
X111000000Y-114000000D03*
X111000000Y-118699000D03*
X94000000Y-109301000D03*
X94000000Y-114000000D03*
X94000000Y-118699000D03*
D24*
X189500000Y-76750000D03*
X189500000Y-61750000D03*
X201750000Y-76500000D03*
X201750000Y-61500000D03*
X214250000Y-76750000D03*
X214250000Y-61750000D03*
X180000000Y-76750000D03*
X180000000Y-61750000D03*
X224500000Y-76500000D03*
X224500000Y-61500000D03*
X169999560Y-85498800D03*
X174500440Y-92001200D03*
X174500440Y-85498800D03*
X169999560Y-92001200D03*
D11*
X188250000Y-52750000D03*
D12*
X190790000Y-52750000D03*
D26*
X108975560Y-79913640D03*
D27*
X111515560Y-79913640D03*
X114055560Y-79913640D03*
X116595560Y-79913640D03*
D28*
X128548800Y-86893560D03*
X98498060Y-86858000D03*
D24*
X144750000Y-104750000D03*
X159750000Y-104750000D03*
X168500000Y-104250000D03*
X183500000Y-104250000D03*
D26*
X146770000Y-120310000D03*
D27*
X144230000Y-120310000D03*
X146770000Y-117770000D03*
X144230000Y-117770000D03*
X146770000Y-115230000D03*
X144230000Y-115230000D03*
X144230000Y-112690000D03*
D29*
X146770000Y-112690000D03*
D30*
X168000000Y-108250000D03*
X164750000Y-111500000D03*
X183250000Y-55500000D03*
X40250000Y-117500000D03*
X68500000Y-113000000D03*
X77500000Y-104000000D03*
X119000000Y-83500000D03*
X122250000Y-80250000D03*
X179000000Y-86000000D03*
X177000000Y-88000000D03*
X154000000Y-89500000D03*
X140750000Y-102750000D03*
X94500000Y-104000000D03*
X85500000Y-113000000D03*
X165000000Y-80250000D03*
X141750000Y-103500000D03*
X96250000Y-104000000D03*
X87250000Y-113000000D03*
X54500000Y-94500000D03*
X140750000Y-118750000D03*
X210500000Y-27000000D03*
X137000000Y-74000000D03*
X85750000Y-123750000D03*
X65000000Y-123750000D03*
X75500000Y-117750000D03*
X85750000Y-107500000D03*
X160500000Y-107250000D03*
X162250000Y-105500000D03*
X77250000Y-117750000D03*
X79250000Y-115750000D03*
X123000000Y-115500000D03*
X129750000Y-110250000D03*
X159250000Y-110250000D03*
X163250000Y-106250000D03*
X77500000Y-119000000D03*
X92500000Y-104000000D03*
X130500000Y-92250000D03*
X132250000Y-90500000D03*
X144750000Y-102250000D03*
X142500000Y-104500000D03*
X118750000Y-82250000D03*
X65750000Y-85250000D03*
X67750000Y-98500000D03*
X103000000Y-63250000D03*
X76500000Y-122750000D03*
X164000000Y-112500000D03*
X162000000Y-110500000D03*
X59750000Y-108500000D03*
X139250000Y-40500000D03*
X83500000Y-96250000D03*
X67500000Y-93500000D03*
X62500000Y-94250000D03*
X60250000Y-96500000D03*
X73500000Y-72250000D03*
X53250000Y-89750000D03*
X111750000Y-82250000D03*
X60000000Y-95250000D03*
X56500000Y-95250000D03*
X48750000Y-102250000D03*
X85500000Y-106000000D03*
X46000000Y-107500000D03*
D31*
X108975560Y-79913640D02*
X109000000Y-80000000D01*
X109000000Y-80000000D02*
X92750000Y-63750000D01*
X92750000Y-63750000D02*
X74000000Y-63750000D01*
X74000000Y-63750000D02*
X74000000Y-63000000D01*
X74000000Y-63000000D02*
X72750000Y-61750000D01*
X72750000Y-61750000D02*
X72735000Y-61685000D01*
X63120000Y-90500000D02*
X63000000Y-90500000D01*
X63000000Y-90500000D02*
X50250000Y-103250000D01*
X50250000Y-103250000D02*
X42500000Y-103250000D01*
X42500000Y-103250000D02*
X42500000Y-103750000D01*
X42500000Y-103750000D02*
X41250000Y-105000000D01*
X41250000Y-105000000D02*
X41340000Y-104880000D01*
X169999560Y-85498800D02*
X170000000Y-85500000D01*
X170000000Y-85500000D02*
X165750000Y-81250000D01*
X165750000Y-81250000D02*
X111000000Y-81250000D01*
X111000000Y-81250000D02*
X110750000Y-81000000D01*
X110750000Y-81000000D02*
X110500000Y-81000000D01*
X110500000Y-81000000D02*
X109500000Y-80000000D01*
X109500000Y-80000000D02*
X109000000Y-80000000D01*
X109000000Y-80000000D02*
X108975560Y-79913640D01*
X183500000Y-104250000D02*
X179500000Y-108250000D01*
X179500000Y-108250000D02*
X168000000Y-108250000D01*
X164750000Y-111500000D02*
X145500000Y-111500000D01*
X145500000Y-111500000D02*
X144250000Y-112750000D01*
X144250000Y-112750000D02*
X144230000Y-112690000D01*
X185249560Y-85998800D02*
X185250000Y-86000000D01*
X185250000Y-86000000D02*
X184250000Y-87000000D01*
X184250000Y-87000000D02*
X173750000Y-87000000D01*
X173750000Y-87000000D02*
X173500000Y-86750000D01*
X173500000Y-86750000D02*
X173250000Y-86750000D01*
X173250000Y-86750000D02*
X172000000Y-85500000D01*
X172000000Y-85500000D02*
X170000000Y-85500000D01*
X170000000Y-85500000D02*
X169999560Y-85498800D01*
X200499560Y-85998800D02*
X200500000Y-86000000D01*
X200500000Y-86000000D02*
X202000000Y-84500000D01*
X202000000Y-84500000D02*
X205750000Y-84500000D01*
X205750000Y-84500000D02*
X206000000Y-84750000D01*
X206000000Y-84750000D02*
X206250000Y-84750000D01*
X206250000Y-84750000D02*
X207500000Y-86000000D01*
X207500000Y-86000000D02*
X216000000Y-86000000D01*
X216000000Y-86000000D02*
X215999560Y-85998800D01*
X200499560Y-85998800D02*
X200500000Y-86000000D01*
X200500000Y-86000000D02*
X199000000Y-87500000D01*
X199000000Y-87500000D02*
X189000000Y-87500000D01*
X189000000Y-87500000D02*
X188750000Y-87250000D01*
X188750000Y-87250000D02*
X188500000Y-87250000D01*
X188500000Y-87250000D02*
X187250000Y-86000000D01*
X187250000Y-86000000D02*
X185250000Y-86000000D01*
X185250000Y-86000000D02*
X185249560Y-85998800D01*
X188250000Y-52750000D02*
X189750000Y-54250000D01*
X189750000Y-54250000D02*
X191500000Y-54250000D01*
X191500000Y-54250000D02*
X193000000Y-52750000D01*
X193000000Y-52750000D02*
X199250000Y-52750000D01*
X178000000Y-52750000D02*
X179500000Y-54250000D01*
X179500000Y-54250000D02*
X181250000Y-54250000D01*
X181250000Y-54250000D02*
X182750000Y-52750000D01*
X182750000Y-52750000D02*
X188250000Y-52750000D01*
X41340000Y-120120000D02*
X41250000Y-120000000D01*
X41250000Y-120000000D02*
X40000000Y-118750000D01*
X40000000Y-118750000D02*
X40000000Y-118500000D01*
X40000000Y-118500000D02*
X37500000Y-118500000D01*
X37500000Y-118500000D02*
X37500000Y-118750000D01*
X37500000Y-118750000D02*
X36250000Y-120000000D01*
X36250000Y-120000000D02*
X36260000Y-120120000D01*
X214250000Y-61750000D02*
X208000000Y-55500000D01*
X208000000Y-55500000D02*
X183250000Y-55500000D01*
X33720000Y-120120000D02*
X33750000Y-120000000D01*
X33750000Y-120000000D02*
X33750000Y-120500000D01*
X33750000Y-120500000D02*
X36000000Y-122750000D01*
X36000000Y-122750000D02*
X70750000Y-122750000D01*
X70750000Y-122750000D02*
X71750000Y-121750000D01*
X71750000Y-121750000D02*
X128500000Y-121750000D01*
X128500000Y-121750000D02*
X128750000Y-121500000D01*
X128750000Y-121500000D02*
X145000000Y-121500000D01*
X145000000Y-121500000D02*
X146250000Y-120250000D01*
X146250000Y-120250000D02*
X146750000Y-120250000D01*
X146750000Y-120250000D02*
X146770000Y-120310000D01*
X40250000Y-117500000D02*
X45750000Y-112000000D01*
X45750000Y-112000000D02*
X128500000Y-112000000D01*
X128500000Y-112000000D02*
X130500000Y-114000000D01*
X130500000Y-114000000D02*
X145000000Y-114000000D01*
X145000000Y-114000000D02*
X146250000Y-115250000D01*
X146250000Y-115250000D02*
X146750000Y-115250000D01*
X146750000Y-115250000D02*
X146770000Y-115230000D01*
X43880000Y-120120000D02*
X44000000Y-120000000D01*
X44000000Y-120000000D02*
X44000000Y-119500000D01*
X44000000Y-119500000D02*
X50500000Y-113000000D01*
X50500000Y-113000000D02*
X68500000Y-113000000D01*
X77500000Y-104000000D02*
X85250000Y-96250000D01*
X85250000Y-96250000D02*
X99000000Y-96250000D01*
X99000000Y-96250000D02*
X111750000Y-83500000D01*
X111750000Y-83500000D02*
X119000000Y-83500000D01*
X122250000Y-80250000D02*
X127500000Y-75000000D01*
X127500000Y-75000000D02*
X202500000Y-75000000D01*
X202500000Y-75000000D02*
X202750000Y-75250000D01*
X202750000Y-75250000D02*
X203000000Y-75250000D01*
X203000000Y-75250000D02*
X204500000Y-76750000D01*
X204500000Y-76750000D02*
X214250000Y-76750000D01*
X201750000Y-76500000D02*
X193750000Y-84500000D01*
X193750000Y-84500000D02*
X184500000Y-84500000D01*
X184500000Y-84500000D02*
X184250000Y-84750000D01*
X184250000Y-84750000D02*
X184000000Y-84750000D01*
X184000000Y-84750000D02*
X182750000Y-86000000D01*
X182750000Y-86000000D02*
X179000000Y-86000000D01*
X177000000Y-88000000D02*
X175500000Y-89500000D01*
X175500000Y-89500000D02*
X154000000Y-89500000D01*
X140750000Y-102750000D02*
X140250000Y-103250000D01*
X140250000Y-103250000D02*
X95500000Y-103250000D01*
X95500000Y-103250000D02*
X94750000Y-104000000D01*
X94750000Y-104000000D02*
X94500000Y-104000000D01*
X85500000Y-113000000D02*
X84750000Y-113750000D01*
X84750000Y-113750000D02*
X78750000Y-113750000D01*
X78750000Y-113750000D02*
X78500000Y-114000000D01*
X78500000Y-114000000D02*
X78250000Y-114000000D01*
X78250000Y-114000000D02*
X77500000Y-114750000D01*
X77500000Y-114750000D02*
X59000000Y-114750000D01*
X59000000Y-114750000D02*
X56000000Y-117750000D01*
X56000000Y-117750000D02*
X49750000Y-117750000D01*
X49750000Y-117750000D02*
X49000000Y-118500000D01*
X49000000Y-118500000D02*
X47750000Y-118500000D01*
X47750000Y-118500000D02*
X47750000Y-118750000D01*
X47750000Y-118750000D02*
X46500000Y-120000000D01*
X46500000Y-120000000D02*
X46420000Y-120120000D01*
X189500000Y-76750000D02*
X186000000Y-80250000D01*
X186000000Y-80250000D02*
X165000000Y-80250000D01*
X141750000Y-103500000D02*
X141250000Y-104000000D01*
X141250000Y-104000000D02*
X96250000Y-104000000D01*
X87250000Y-113000000D02*
X85500000Y-114750000D01*
X85500000Y-114750000D02*
X79000000Y-114750000D01*
X79000000Y-114750000D02*
X78750000Y-115000000D01*
X78750000Y-115000000D02*
X78500000Y-115000000D01*
X78500000Y-115000000D02*
X77750000Y-115750000D01*
X77750000Y-115750000D02*
X59250000Y-115750000D01*
X59250000Y-115750000D02*
X56500000Y-118500000D01*
X56500000Y-118500000D02*
X50250000Y-118500000D01*
X50250000Y-118500000D02*
X50250000Y-118750000D01*
X50250000Y-118750000D02*
X49000000Y-120000000D01*
X49000000Y-120000000D02*
X48960000Y-120120000D01*
X54500000Y-94500000D02*
X57000000Y-92000000D01*
X57000000Y-92000000D02*
X57000000Y-91500000D01*
X57000000Y-91500000D02*
X58000000Y-90500000D01*
X58000000Y-90500000D02*
X58040000Y-90500000D01*
X56580000Y-120120000D02*
X56500000Y-120000000D01*
X56500000Y-120000000D02*
X56500000Y-119750000D01*
X56500000Y-119750000D02*
X59500000Y-116750000D01*
X59500000Y-116750000D02*
X128500000Y-116750000D01*
X128500000Y-116750000D02*
X128750000Y-117000000D01*
X128750000Y-117000000D02*
X129000000Y-117000000D01*
X129000000Y-117000000D02*
X129750000Y-117750000D01*
X129750000Y-117750000D02*
X144250000Y-117750000D01*
X144250000Y-117750000D02*
X144230000Y-117770000D01*
X59120000Y-120120000D02*
X59000000Y-120000000D01*
X59000000Y-120000000D02*
X59000000Y-120250000D01*
X59000000Y-120250000D02*
X60250000Y-121500000D01*
X60250000Y-121500000D02*
X60250000Y-121750000D01*
X60250000Y-121750000D02*
X70500000Y-121750000D01*
X70500000Y-121750000D02*
X71500000Y-120750000D01*
X71500000Y-120750000D02*
X128250000Y-120750000D01*
X128250000Y-120750000D02*
X128500000Y-120500000D01*
X128500000Y-120500000D02*
X128750000Y-120500000D01*
X128750000Y-120500000D02*
X130500000Y-118750000D01*
X130500000Y-118750000D02*
X140750000Y-118750000D01*
X210500000Y-27000000D02*
X186250000Y-51250000D01*
X186250000Y-51250000D02*
X176500000Y-51250000D01*
X176500000Y-51250000D02*
X153750000Y-74000000D01*
X153750000Y-74000000D02*
X137000000Y-74000000D01*
X85750000Y-123750000D02*
X65000000Y-123750000D01*
X64200000Y-120120000D02*
X64250000Y-120000000D01*
X64250000Y-120000000D02*
X64250000Y-119750000D01*
X64250000Y-119750000D02*
X66250000Y-117750000D01*
X66250000Y-117750000D02*
X75500000Y-117750000D01*
X85750000Y-107500000D02*
X87000000Y-106250000D01*
X87000000Y-106250000D02*
X159000000Y-106250000D01*
X159000000Y-106250000D02*
X160000000Y-107250000D01*
X160000000Y-107250000D02*
X160500000Y-107250000D01*
X162250000Y-105500000D02*
X173750000Y-94000000D01*
X173750000Y-94000000D02*
X186000000Y-94000000D01*
X186000000Y-94000000D02*
X186250000Y-93750000D01*
X186250000Y-93750000D02*
X186500000Y-93750000D01*
X186500000Y-93750000D02*
X187750000Y-92500000D01*
X187750000Y-92500000D02*
X189750000Y-92500000D01*
X189750000Y-92500000D02*
X189750440Y-92501200D01*
X66740000Y-120120000D02*
X66750000Y-120000000D01*
X66750000Y-120000000D02*
X68000000Y-118750000D01*
X68000000Y-118750000D02*
X68000000Y-118500000D01*
X68000000Y-118500000D02*
X76250000Y-118500000D01*
X76250000Y-118500000D02*
X77000000Y-117750000D01*
X77000000Y-117750000D02*
X77250000Y-117750000D01*
X79250000Y-115750000D02*
X79500000Y-116000000D01*
X79500000Y-116000000D02*
X112000000Y-116000000D01*
X112000000Y-116000000D02*
X112500000Y-115500000D01*
X112500000Y-115500000D02*
X123000000Y-115500000D01*
X129750000Y-110250000D02*
X159250000Y-110250000D01*
X163250000Y-106250000D02*
X174500000Y-95000000D01*
X174500000Y-95000000D02*
X186250000Y-95000000D01*
X186250000Y-95000000D02*
X186500000Y-94750000D01*
X186500000Y-94750000D02*
X186750000Y-94750000D01*
X186750000Y-94750000D02*
X187500000Y-94000000D01*
X187500000Y-94000000D02*
X201250000Y-94000000D01*
X201250000Y-94000000D02*
X201500000Y-93750000D01*
X201500000Y-93750000D02*
X201750000Y-93750000D01*
X201750000Y-93750000D02*
X203000000Y-92500000D01*
X203000000Y-92500000D02*
X205000000Y-92500000D01*
X205000000Y-92500000D02*
X205000440Y-92501200D01*
X69280000Y-120120000D02*
X69250000Y-120000000D01*
X69250000Y-120000000D02*
X69750000Y-119500000D01*
X69750000Y-119500000D02*
X76500000Y-119500000D01*
X76500000Y-119500000D02*
X77000000Y-119000000D01*
X77000000Y-119000000D02*
X77500000Y-119000000D01*
X92500000Y-104000000D02*
X104250000Y-92250000D01*
X104250000Y-92250000D02*
X130500000Y-92250000D01*
X132250000Y-90500000D02*
X175250000Y-90500000D01*
X175250000Y-90500000D02*
X175500000Y-90750000D01*
X175500000Y-90750000D02*
X175750000Y-90750000D01*
X175750000Y-90750000D02*
X176000000Y-91000000D01*
X176000000Y-91000000D02*
X216750000Y-91000000D01*
X216750000Y-91000000D02*
X217000000Y-91250000D01*
X217000000Y-91250000D02*
X217250000Y-91250000D01*
X217250000Y-91250000D02*
X218500000Y-92500000D01*
X218500000Y-92500000D02*
X220500000Y-92500000D01*
X220500000Y-92500000D02*
X220500440Y-92501200D01*
X174500440Y-92001200D02*
X174500000Y-92000000D01*
X174500000Y-92000000D02*
X164250000Y-102250000D01*
X164250000Y-102250000D02*
X144750000Y-102250000D01*
X142500000Y-104500000D02*
X142000000Y-105000000D01*
X142000000Y-105000000D02*
X69250000Y-105000000D01*
X69250000Y-105000000D02*
X69280000Y-104880000D01*
X144750000Y-104750000D02*
X129750000Y-89750000D01*
X129750000Y-89750000D02*
X127750000Y-89750000D01*
X127750000Y-89750000D02*
X127500000Y-89500000D01*
X127500000Y-89500000D02*
X127250000Y-89500000D01*
X127250000Y-89500000D02*
X127000000Y-89250000D01*
X127000000Y-89250000D02*
X126750000Y-89250000D01*
X126750000Y-89250000D02*
X119750000Y-82250000D01*
X119750000Y-82250000D02*
X118750000Y-82250000D01*
X116595560Y-79913640D02*
X116500000Y-80000000D01*
X116500000Y-80000000D02*
X96250000Y-59750000D01*
X96250000Y-59750000D02*
X76500000Y-59750000D01*
X76500000Y-59750000D02*
X76500000Y-60500000D01*
X76500000Y-60500000D02*
X75250000Y-61750000D01*
X75250000Y-61750000D02*
X75275000Y-61685000D01*
X187750000Y-39750000D02*
X201750000Y-25750000D01*
X201750000Y-25750000D02*
X213500000Y-25750000D01*
X213500000Y-25750000D02*
X213500000Y-25250000D01*
X213500000Y-25250000D02*
X214500000Y-24250000D01*
X214500000Y-24250000D02*
X214620000Y-24250000D01*
X65750000Y-85250000D02*
X60500000Y-90500000D01*
X60500000Y-90500000D02*
X60580000Y-90500000D01*
X159750000Y-104750000D02*
X168750000Y-113750000D01*
X168750000Y-113750000D02*
X183000000Y-113750000D01*
X66740000Y-104880000D02*
X66750000Y-105000000D01*
X66750000Y-105000000D02*
X65500000Y-106250000D01*
X65500000Y-106250000D02*
X65500000Y-106500000D01*
X65500000Y-106500000D02*
X37500000Y-106500000D01*
X37500000Y-106500000D02*
X37500000Y-106250000D01*
X37500000Y-106250000D02*
X36250000Y-105000000D01*
X36250000Y-105000000D02*
X36260000Y-104880000D01*
X183000000Y-113750000D02*
X183250000Y-113500000D01*
X183250000Y-113500000D02*
X211750000Y-113500000D01*
X144750000Y-104750000D02*
X159750000Y-104750000D01*
X61660000Y-104880000D02*
X61750000Y-105000000D01*
X61750000Y-105000000D02*
X61750000Y-104500000D01*
X61750000Y-104500000D02*
X67750000Y-98500000D01*
X103000000Y-63250000D02*
X124750000Y-41500000D01*
X124750000Y-41500000D02*
X178500000Y-41500000D01*
X178500000Y-41500000D02*
X180250000Y-39750000D01*
X180250000Y-39750000D02*
X182670000Y-39750000D01*
X76500000Y-122750000D02*
X184500000Y-122750000D01*
X184500000Y-122750000D02*
X188750000Y-118500000D01*
X188750000Y-118500000D02*
X211750000Y-118500000D01*
X211750000Y-118500000D02*
X211750000Y-118580000D01*
X183000000Y-118830000D02*
X183000000Y-118750000D01*
X183000000Y-118750000D02*
X182000000Y-117750000D01*
X182000000Y-117750000D02*
X181500000Y-117750000D01*
X181500000Y-117750000D02*
X178500000Y-114750000D01*
X178500000Y-114750000D02*
X168500000Y-114750000D01*
X168500000Y-114750000D02*
X166250000Y-112500000D01*
X166250000Y-112500000D02*
X164000000Y-112500000D01*
X162000000Y-110500000D02*
X158750000Y-107250000D01*
X158750000Y-107250000D02*
X93250000Y-107250000D01*
X93250000Y-107250000D02*
X93000000Y-107500000D01*
X93000000Y-107500000D02*
X92750000Y-107500000D01*
X92750000Y-107500000D02*
X91750000Y-108500000D01*
X91750000Y-108500000D02*
X59750000Y-108500000D01*
X207000000Y-24250000D02*
X206500000Y-24750000D01*
X206500000Y-24750000D02*
X201500000Y-24750000D01*
X201500000Y-24750000D02*
X188250000Y-38000000D01*
X188250000Y-38000000D02*
X176750000Y-38000000D01*
X176750000Y-38000000D02*
X176500000Y-38250000D01*
X176500000Y-38250000D02*
X176250000Y-38250000D01*
X176250000Y-38250000D02*
X174000000Y-40500000D01*
X174000000Y-40500000D02*
X139250000Y-40500000D01*
X83500000Y-96250000D02*
X82250000Y-97500000D01*
X82250000Y-97500000D02*
X67500000Y-97500000D01*
X67500000Y-97500000D02*
X67250000Y-97750000D01*
X67250000Y-97750000D02*
X67000000Y-97750000D01*
X67000000Y-97750000D02*
X61500000Y-103250000D01*
X61500000Y-103250000D02*
X55250000Y-103250000D01*
X55250000Y-103250000D02*
X55250000Y-103750000D01*
X55250000Y-103750000D02*
X54000000Y-105000000D01*
X54000000Y-105000000D02*
X54040000Y-104880000D01*
X67500000Y-93500000D02*
X66750000Y-94250000D01*
X66750000Y-94250000D02*
X62500000Y-94250000D01*
X60250000Y-96500000D02*
X53500000Y-103250000D01*
X53500000Y-103250000D02*
X52750000Y-103250000D01*
X52750000Y-103250000D02*
X52750000Y-103750000D01*
X52750000Y-103750000D02*
X51500000Y-105000000D01*
X51500000Y-105000000D02*
X51500000Y-104880000D01*
X73500000Y-72250000D02*
X56750000Y-89000000D01*
X56750000Y-89000000D02*
X54000000Y-89000000D01*
X54000000Y-89000000D02*
X53250000Y-89750000D01*
X111750000Y-82250000D02*
X98750000Y-95250000D01*
X98750000Y-95250000D02*
X60000000Y-95250000D01*
X56500000Y-95250000D02*
X49500000Y-102250000D01*
X49500000Y-102250000D02*
X48750000Y-102250000D01*
X85500000Y-106000000D02*
X84000000Y-107500000D01*
X84000000Y-107500000D02*
X46000000Y-107500000D01*
M02*
